<svg width="24" height="24" viewBox="0 0 24 24" fill="none" xmlns="http://www.w3.org/2000/svg">
<path d="M15.9949 6.94418C16.2878 6.65129 16.7627 6.65129 17.0556 6.94418C17.3485 7.23707 17.3485 7.71195 17.0556 8.00484L13.0604 12L17.0555 15.9952C17.3484 16.2881 17.3484 16.763 17.0555 17.0558C16.7626 17.3487 16.2878 17.3487 15.9949 17.0558L11.9997 13.0607L8.0046 17.0558C7.71171 17.3487 7.23683 17.3487 6.94394 17.0558C6.65105 16.7629 6.65105 16.288 6.94394 15.9951L10.9391 12L6.9439 8.00488C6.65101 7.71199 6.65101 7.23711 6.9439 6.94422C7.2368 6.65133 7.71167 6.65133 8.00456 6.94422L11.9997 10.9394L15.9949 6.94418Z" fill="currentColor"/>
</svg>
