<svg width="24" height="24" viewBox="0 0 24 24" fill="none" xmlns="http://www.w3.org/2000/svg">
<path d="M11.2501 5.60001C11.2501 5.18579 11.5859 4.85001 12.0001 4.85001C12.4143 4.85001 12.7501 5.18579 12.7501 5.60001V11.2501H18.4001C18.8143 11.2501 19.1501 11.5858 19.1501 12.0001C19.1501 12.4143 18.8143 12.7501 18.4001 12.7501L12.7501 12.7501L12.7501 18.4C12.7501 18.8142 12.4143 19.15 12.0001 19.15C11.5859 19.15 11.2501 18.8142 11.2501 18.4L11.2501 12.7501H5.6001C5.18588 12.7501 4.8501 12.4143 4.8501 12.0001C4.8501 11.5858 5.18588 11.2501 5.6001 11.2501L11.2501 11.2501L11.2501 5.60001Z" fill="currentColor"/>
</svg>
