<svg xmlns="http://www.w3.org/2000/svg" width="24" height="24" viewBox="0 0 24 24" fill="none">
  <g opacity="0.5">
    <path d="M11.5 19C15.6421 19 19 15.6421 19 11.5C19 7.35786 15.6421 4 11.5 4C7.35786 4 4 7.35786 4 11.5C4 15.6421 7.35786 19 11.5 19Z" fill="currentColor"/>
  </g>
  <path fill-rule="evenodd" clip-rule="evenodd" d="M11.5 9C11.8186 9 12.0769 9.2583 12.0769 9.57692V10.9231H13.4231C13.7417 10.9231 14 11.1814 14 11.5C14 11.8186 13.7417 12.0769 13.4231 12.0769H12.0769V13.4231C12.0769 13.7417 11.8186 14 11.5 14C11.1814 14 10.9231 13.7417 10.9231 13.4231V12.0769H9.57692C9.2583 12.0769 9 11.8186 9 11.5C9 11.1814 9.2583 10.9231 9.57692 10.9231H10.9231V9.57692C10.9231 9.2583 11.1814 9 11.5 9Z" fill="currentColor"/>
  <path d="M16 16.8345L18.9927 19.8272C19.2231 20.0576 19.5967 20.0576 19.8272 19.8272C20.0576 19.5967 20.0576 19.2231 19.8272 18.9927L16.8345 16C16.5787 16.2996 16.2996 16.5787 16 16.8345Z" fill="currentColor"/>
</svg>