<svg xmlns="http://www.w3.org/2000/svg" width="24" height="24" viewBox="0 0 24 24" fill="none">
  <path fill-rule="evenodd" clip-rule="evenodd" d="M11.5 5.09756C7.96403 5.09756 5.09756 7.96403 5.09756 11.5C5.09756 15.036 7.96403 17.9024 11.5 17.9024C15.036 17.9024 17.9024 15.036 17.9024 11.5C17.9024 7.96403 15.036 5.09756 11.5 5.09756ZM4 11.5C4 7.35786 7.35786 4 11.5 4C15.6421 4 19 7.35786 19 11.5C19 15.6421 15.6421 19 11.5 19C7.35786 19 4 15.6421 4 11.5Z" fill="currentColor"/>
  <path fill-rule="evenodd" clip-rule="evenodd" d="M11.5 5.29761C8.07454 5.29761 5.29761 8.07454 5.29761 11.5C5.29761 14.9256 8.07454 17.7025 11.5 17.7025C14.9256 17.7025 17.7025 14.9256 17.7025 11.5C17.7025 8.07454 14.9256 5.29761 11.5 5.29761ZM3.80005 11.5C3.80005 7.24746 7.24746 3.80005 11.5 3.80005C15.7526 3.80005 19.2 7.24746 19.2 11.5C19.2 15.7526 15.7526 19.2 11.5 19.2C7.24746 19.2 3.80005 15.7526 3.80005 11.5ZM5.09761 11.5C5.09761 7.96408 7.96408 5.09761 11.5 5.09761C15.036 5.09761 17.9025 7.96408 17.9025 11.5C17.9025 15.036 15.036 17.9025 11.5 17.9025C7.96408 17.9025 5.09761 15.036 5.09761 11.5ZM11.5 4.00005C7.35791 4.00005 4.00005 7.35791 4.00005 11.5C4.00005 15.6422 7.35791 19 11.5 19C15.6422 19 19 15.6422 19 11.5C19 7.35791 15.6422 4.00005 11.5 4.00005Z" fill="currentColor"/>
  <path fill-rule="evenodd" clip-rule="evenodd" d="M16.1757 16.1757C16.4101 15.9414 16.7899 15.9414 17.0243 16.1757L19.8243 18.9757C20.0586 19.2101 20.0586 19.5899 19.8243 19.8243C19.5899 20.0586 19.2101 20.0586 18.9757 19.8243L16.1757 17.0243C15.9414 16.7899 15.9414 16.4101 16.1757 16.1757Z" fill="currentColor"/>
  <path fill-rule="evenodd" clip-rule="evenodd" d="M16.0344 16.0344C16.3468 15.7219 16.8533 15.7219 17.1657 16.0344L19.9657 18.8344C20.2782 19.1468 20.2782 19.6533 19.9657 19.9657C19.6533 20.2782 19.1468 20.2782 18.8344 19.9657L16.0344 17.1657C15.7219 16.8533 15.7219 16.3468 16.0344 16.0344ZM17.0243 16.1758C16.79 15.9415 16.4101 15.9415 16.1758 16.1758C15.9415 16.4101 15.9415 16.79 16.1758 17.0243L18.9758 19.8243C19.2101 20.0586 19.59 20.0586 19.8243 19.8243C20.0586 19.59 20.0586 19.2101 19.8243 18.9758L17.0243 16.1758Z" fill="currentColor"/>
  <path fill-rule="evenodd" clip-rule="evenodd" d="M11.5 9C11.8186 9 12.0769 9.2583 12.0769 9.57692V10.9231H13.4231C13.7417 10.9231 14 11.1814 14 11.5C14 11.8186 13.7417 12.0769 13.4231 12.0769H12.0769V13.4231C12.0769 13.7417 11.8186 14 11.5 14C11.1814 14 10.9231 13.7417 10.9231 13.4231V12.0769H9.57692C9.2583 12.0769 9 11.8186 9 11.5C9 11.1814 9.2583 10.9231 9.57692 10.9231H10.9231V9.57692C10.9231 9.2583 11.1814 9 11.5 9Z" fill="currentColor"/>
  <path fill-rule="evenodd" clip-rule="evenodd" d="M11.5 8.80005C11.9291 8.80005 12.277 9.14789 12.277 9.57697V10.7231H13.4231C13.8522 10.7231 14.2 11.071 14.2 11.5C14.2 11.9291 13.8522 12.277 13.4231 12.277H12.277V13.4231C12.277 13.8522 11.9291 14.2 11.5 14.2C11.071 14.2 10.7231 13.8522 10.7231 13.4231V12.277H9.57697C9.14789 12.277 8.80005 11.9291 8.80005 11.5C8.80005 11.071 9.14789 10.7231 9.57697 10.7231H10.7231V9.57697C10.7231 9.14789 11.071 8.80005 11.5 8.80005ZM12.077 9.57697C12.077 9.25835 11.8187 9.00005 11.5 9.00005C11.1814 9.00005 10.9231 9.25835 10.9231 9.57697V10.9231H9.57697C9.25835 10.9231 9.00005 11.1814 9.00005 11.5C9.00005 11.8187 9.25835 12.077 9.57697 12.077H10.9231V13.4231C10.9231 13.7418 11.1814 14 11.5 14C11.8187 14 12.077 13.7418 12.077 13.4231V12.077H13.4231C13.7418 12.077 14 11.8187 14 11.5C14 11.1814 13.7418 10.9231 13.4231 10.9231H12.077V9.57697Z" fill="currentColor"/>
</svg>